 <svg class="f-img" data-name="凡科互动" xmlns="http://www.w3.org/2000/svg" viewBox="0 0 141 35">
    <title>凡科互动</title>
    <path d="M14.66,5.53A33.6,33.6,0,0,0,0,26.53a22.28,22.28,0,0,1,6.74,7A34,34,0,0,1,14.66,5.53Z" fill="#2bcc6f"/><path d="M15.3,11A35,35,0,0,1,32.48,5.63,57.86,57.86,0,0,1,33.92,0,22,22,0,0,0,22.81,3.3,22.52,22.52,0,0,0,15.3,11Z" fill="#f73"/><path d="M31.78,10a34,34,0,0,0-14.85,4.53A11.66,11.66,0,0,0,11.2,23a34.25,34.25,0,0,0,.4,12,56.91,56.91,0,0,1,22.26-1.62A57.29,57.29,0,0,1,31.78,10Z" fill="#2882ff"/><polygon points="48.4 11.5 48.38 11.5 53.16 21.49 55.76 21.49 50.98 11.5 48.4 11.5" fill="#414247"/><path d="M61.58,7.85h0V7.13A1.17,1.17,0,0,0,60.4,6H42.32V23.68A22.78,22.78,0,0,1,41,29h2.44a22.33,22.33,0,0,0,1.3-5.31L44.69,7.85H59.22v19.3h0V29h3.66l.51-1.89h-1.8Z" fill="#414247"/><path d="M76,16H73.56a58.86,58.86,0,0,0,1.13,11.63h2.47A54.83,54.83,0,0,1,76,16Z" fill="#414247"/><path d="M65.74,27.66h2.48A59.93,59.93,0,0,0,69.34,16H66.9A54.83,54.83,0,0,1,65.74,27.66Z" fill="#414247"/><polygon points="86.65 5.96 86.65 5.96 84.31 5.96 84.29 5.96 84.29 20.48 77.56 21.47 77.56 23.36 84.29 22.38 84.29 29.04 86.65 29.04 86.65 22.03 89.08 21.67 89.08 19.78 86.65 20.14 86.65 5.96" fill="#414247"/><path d="M76.37,14.12V12.23H72.63V8.84h0v-.6a28,28,0,0,0,3.74-.78V5.56a49.74,49.74,0,0,1-9.84,1.36s0,1.89,0,1.89c1.39-.06,2.63-.16,3.74-.27v3.69H66.53v1.89h3.74V29h2.36V14.12Z" fill="#414247"/><polygon points="83.35 12.32 80.95 7.32 78.37 7.32 78.35 7.32 80.75 12.32 83.35 12.32" fill="#414247"/><polygon points="83.35 18.66 80.95 13.65 78.37 13.65 78.35 13.65 80.75 18.66 83.35 18.66" fill="#414247"/><path d="M111.61,13.91a1.16,1.16,0,0,0-1.12-1.41H99L100,7.74h14.09V5.85h-22V7.74h5.45L94.35,22l.59,0h12.41l-1.16,5.14H91.47v1.9h23.24v-1.9h-6.09ZM97.23,20.13l1.29-5.73h10.55l-1.29,5.73Z" fill="#414247"/><rect x="117.59" y="6.83" width="9.96" height="1.89" fill="#414247"/><polygon points="124.02 19.59 125.72 27.14 119.95 27.14 122.65 15.17 128.01 15.17 128.01 13.27 117.11 13.27 117.11 15.17 120.22 15.17 117.07 29.04 128.6 29.04 126.44 19.55 124.02 19.59" fill="#414247"/><path d="M140.3,10.1a1.17,1.17,0,0,0-1.17-1.17H133.8v-3h-2.37v3h-1.3v1.89h1.3V23.65a22.92,22.92,0,0,1-1.3,5.36h2.44a22.33,22.33,0,0,0,1.3-5.31l-.05-12.88h4.12V27.15h-2.72l.51,1.89h4.58Z" fill="#414247"/>
</svg>